<?xml version="1.0" encoding="utf-8"?>
<!-- Generator: Adobe Illustrator 16.0.4, SVG Export Plug-In . SVG Version: 6.00 Build 0)  -->
<!DOCTYPE svg PUBLIC "-//W3C//DTD SVG 1.1//EN" "http://www.w3.org/Graphics/SVG/1.1/DTD/svg11.dtd">
<svg version="1.1" id="Layer_1" xmlns="http://www.w3.org/2000/svg" xmlns:xlink="http://www.w3.org/1999/xlink" x="0px" y="0px"
	 width="792px" height="720px" viewBox="0 0 792 720" enable-background="new 0 0 792 720" xml:space="preserve">
<g id="Layer_2">
	<path class="bigLetters" fill="#7C5A35" d="M168.5,348.5c0,0-7.25-4.5-14.5-3.25S129.5,359,132.75,378s32.75,20.25,44.5,13
		s39.561-32.514,43.561-67.014c4-34.5,2.856-39.653-1.561-46.736c0,0,5.816-12.756,4.25-29.25
		c-1.25-13.161-20.25-27.368-20.25-27.368L230.812,217l35.688,69.833l22.25-77.083l24.875-3.125c0,0-14.375,23.625-14.125,36.125
		s10.5,26,10.5,26s-12,15.5,5.25,50.5s45,47.25,57.75,46.25c0,0-7.793-0.709-5.25-8.75c3.083-9.75,14-6.583,17.75-2.083
		s5.296,15.286-5.5,20.583c-13.256,6.504-41.5-8.5-44.5-12c0,0,14.648,18.936,39,19.25c25.833,0.334,24.25-10.75,24.25-10.75
		s-4.5-2.25-2.75-8S406.75,353,414.5,360s5.322,15.586,0,21.5c-7.5,8.334-30,27-70.25,2.75s-43.75-67.75-45.5-73.5
		s-4.679-34.34-9.929-37.84c0,0,7.554-12.535,1.429-17.91l-14.416,43.333c-1.5,4.667,0.354,9.731,5.5,10.667
		c5.5,1,10.666-4,10.666-4s3.834,12.833-6.75,16c-10.549,3.156-15.75-6.75-15.75-6.75s-3.833,11.083-14,11.75
		c-8.746,0.573-12.5-10.25-12.5-13.25c0,0,8.346,3.832,13.5,0.083c3.667-2.667,5-8.333,3-13.333s-24.25-42.25-24.25-42.25
		s-2.25,12.5,5,18c0,0-3.5,2.25-3.75,15.25s1,62.75-14.25,90.25c-14.832,26.746-40.25,55.75-79,43.25s-38.75-53.75-25.5-71.5
		S145,329.25,157,333.75S168.5,348.5,168.5,348.5z"/>
	<path d="M270.416,335.333c5.218-0.713,5.334-3.667,5.333-5.583c-0.001-1.835-5.75-8.083-5.75-8.083s-4.25,8.167-4.333,8.833
		S265.534,336,270.416,335.333z"/>
	<path class="bigLetters" fill="#7C5A35" d="M387,257.667c-4.813-4.744-6.506-18.798-10.256-37.917s-21.118-18.224-32.419-16.848
		c-39,4.75-26.575,40.848-25.325,48.598s-1.963,16.966-1.963,16.966c4,3.216,3.713,11.034,5.713,19.731
		c2,8.697,8.75,23.553,34.57,19.606c25.82-3.947,29.517-12.054,27.023-30.151C382.187,262,387,257.667,387,257.667z
		 M355.999,296.482c-17.332,2.352-22.301-8.828-23.832-15.482c-1.53-6.654-1.428-11.671,1-15.167c0,0-4.667-2.872-5.5-14.833
		c-0.51-7.318-6.974-33.988,18.083-36.594c8.663-0.901,20.742,1.825,23.584,14.428c3.833,17,4.055,25.941,0.167,31
		c0,0,4.667,1.667,5.167,15.167C375.126,287.405,372.172,294.288,355.999,296.482z"/>
	<path class="bigLetters" fill="#7C5A35" d="M404.621,297.985c0,0-2.234,9.844,9.379,9.015c11.667-0.833,12.5-11.333,9.5-17.25
		c-3.218-6.346-12.01-8.616-19.608-5.75c-9.725,3.667-28.946,23.891-20.625,46.888c8.566,23.673,33.233,25.487,49.233,22.737
		s39.5-20.875,35.75-51.875s-29-48.75-37.5-52.5c-3.202-1.413-11.307-4.5-11.307-14.625c0,0-18.344-1.409-20.595-14.779
		c-2.226-13.221,4.185-19.94,14.149-22.346c10.875-2.625,21.375,2.5,23.875,12.5c0,0-13.127-0.117-12.25,12.375
		c1,14.25,20.972,13.75,25.737,1.395c3.647-9.461,5.892-39.391-32.36-42.27s-51.111,48.25-17.682,64.25l3.569,9.775
		c0,0,8.983-4.4,20.966,1.725c11.372,5.814,29.714,24.303,28.645,46.75c-1.069,22.447-16.159,33.325-32.659,33.825
		c-12.479,0.378-25.507-8.351-25.674-21.017C394.966,301.57,404.621,297.985,404.621,297.985z"/>
	<path class="bigLetters" fill="#7C5A35" d="M502.627,199.923c-4.593-2.415-10.066-2.938-14.603-2.466c-25.059,2.606-18.595,29.276-18.083,36.594
		c0.833,11.962,5.5,14.833,5.5,14.833c-2.431,3.495-2.53,8.513-1,15.167c1.528,6.654,6.5,17.833,23.83,15.482
		c7.562-1.026,12.235-3.077,15.021-6.238l10.045,5.358c-3.297,6.023-10.826,9.62-25.53,11.868
		c-25.818,3.947-32.568-10.909-34.568-19.606c-2-8.697-1.713-16.516-5.713-19.731c0,0,3.213-9.216,1.963-16.966
		s-13.676-43.848,25.324-48.598c6.584-0.802,15.229-1.44,22.037,1.948L502.627,199.923z"/>
	<path class="bigLetters" fill="#7C5A35" d="M609.167,273.222c0,0-2.234,9.844,9.379,9.015c11.667-0.833,12.5-11.333,9.5-17.25
		c-3.218-6.346-12.01-8.616-19.606-5.75c-9.727,3.667-28.946,23.891-20.624,46.888c8.564,23.673,33.23,25.487,49.23,22.737
		s39.5-20.875,35.75-51.875c-3.75-31-29-48.75-37.5-52.5c-3.202-1.413-11.307-4.5-11.307-14.625c0,0-18.342-1.409-20.593-14.779
		c-2.228-13.221,4.183-19.94,14.147-22.346c10.875-2.625,21.375,2.5,23.875,12.5c0,0-13.127-0.117-12.25,12.375
		c1,14.25,20.972,13.75,25.737,1.395c3.647-9.461,5.892-39.391-32.36-42.27c-38.252-2.879-51.111,48.25-17.682,64.25l3.569,9.775
		c0,0,8.983-4.4,20.967,1.725c11.373,5.814,29.713,24.303,28.644,46.75c-1.069,22.447-16.159,33.326-32.659,33.826
		c-12.479,0.379-25.507-8.35-25.675-21.016C599.512,276.807,609.167,273.222,609.167,273.222z"/>
	<path class="bigLetters" fill="#7C5A35" d="M594.828,271.48c-0.782-0.326-1.438-2.482-1.438-2.482l-13.283-39.193l-0.091-0.263
		c13.121-5.211,19.128-4.74,19.128-4.74s-10.038-3.744-21.271-1.586l-0.037-0.108l-14.229-41.982c0,0,0-2.5,2.298-5.157
		c2.762-3.193,0-2.552,0-2.552s-20.762,2.617-23.765,3.008c-3.002,0.391-1.239,1.829-1.239,1.829l5.22,4.793l-5.647,44.937
		l-0.018,0.132c-12.894-0.759-25.993,8.046-25.993,8.046s13.318-4.113,25.106-0.982l-0.019,0.132l-4.719,37.54
		c0,0-0.652,3.049-1.958,5.399c-1.305,2.35-4.191,3.293-4.191,3.293c-1.108,2.483-0.379,3.058-0.379,3.058
		s16.103-1.828,17.862-1.958c1.763-0.131,1.445-0.806,1.57-2.024c0.126-1.217-3.734-0.293-4.862-1.869
		c-1.087-1.52-1.75-5.5-1.75-5.5l4.327-35.962l0.146,0.021c8.165,3.587,12.651,8.691,12.651,8.691s4.456-6.806,12.646-12.02
		l0.068,0.214c6.012,18.346,12.109,36.944,12.533,38.181c0.849,2.481,0.078,2.107-1.162,3.478c-1.242,1.371,0.391,2.219,0.391,2.219
		l15.689-2.284c0,0,0.523-1.044,0.719-1.566C599.332,273.7,595.612,271.806,594.828,271.48z M557.648,234.626
		c0,0-2.903-3.514-11.211-5.54l0.038-0.32l3.611-30.019l8.869-1.224c0,0,4.345,13.271,9.379,28.643l0.107,0.324
		C561.544,230.012,557.648,234.626,557.648,234.626z"/>
	<g>
		<path fill="#FFFFFF" d="M521.047,135.25c0,0-4.545-0.356-14.547,4c-7.436,3.239-10.665,8.911-10.665,8.911
			s-5.288-4.29-12.812-6.288C475.499,139.875,467,142.5,467,142.5s10.75-5.125,19.375-3.375s8.681,2.748,8.681,2.748
			s3.899-3.258,10.444-5.373C513.625,133.875,521.047,135.25,521.047,135.25z"/>
		<path fill="#FFFFFF" d="M334.25,124.625l2.125,6.875c0,0,8.625-5.625,10-3.438l7.566,54.351l-1.441,6.503l8.667-1l-3.333-6.167
			l-6.917-52.167c0,0,9.583,0.167,30.833,48.167s60,33.625,62.75,20.875s0.25-21.25-6.625-20.625s-4.99,5.279-3.405,6
			c1.585,0.721,5.313,0.934,5.28-2.5c0,0,7.75,15.25-3.625,21.875s-24.375-1.5-24.375-1.5s22.483,1.108,19.75-15.75
			c0,0-0.875-4.25-4-4.125s-5,4-2.375,5.375s4-0.625,4-0.625s2.125,9.125-10.375,11.75s-25.25-1.5-32.25-26.75
			s-8.841-48.167-8.841-48.167s-0.409-3.5,3.841-3.833l0.687-2.855c0,0-9.108-2.078-8.271,2.189
			c0.853,4.343,4.833,37.792,4.833,37.792S364.25,111.75,334.25,124.625z"/>
		<polygon fill="#FFFFFF" points="390.738,115.15 400.083,114 398.5,120.25 405.875,174.688 409.902,181.872 400.25,182.938 
			402,174.833 399.083,149.833 396,146.75 397.75,142.903 394.5,120.53 		"/>
		<path fill="#FFFFFF" d="M418.002,110.501c0,0,0.165-2.334,2.165-2.334s18.681-1.854,22-7.167c0,0,1.104-0.167,1.938,0.417
			s0.312,2.334-0.479,4.313s-1.21,5.934,0.929,12.026c5.029,14.328,7.531,25.745,6.832,33.563
			c-0.971,10.851-7.887,21.306-7.887,21.306s9,1.5,14.75,0s14.5-7.5,14.5-7.5s1-1.375,1.375,1.125s1.188,6.958-1.562,7.042
			s-6.625,2.411-35.312,2.872c0,0-1.127-0.07-0.188-1.523c0.939-1.453,12.524-14.298,10.807-31.016
			c-1.601-15.542-3.653-16.416-6.03-24.958c-2.558-9.192-0.961-13.167-0.961-13.167s-7.836,3.166-11.25,3.75
			S418.918,109.793,418.002,110.501z"/>
		<path fill="#FFFFFF" d="M476.076,171.464c0,0,2.3-0.381,3.133-1.881s0.793-3.667,0.793-3.667l7.415-59l-3.543-1.374
			c0,0-1.124-0.917,0.792-1.167s15.166-1.92,15.166-1.92s2.083-0.08,0,1.628s-2.541,1.708-2.541,1.708l20.084,57.666
			c0,0,0.417,1.375,0.917,1.583s2.875,1.417,2.75,1.75s-0.459,1-0.459,1l-9.375,1.458c0,0-1.042-0.542-0.25-1.417
			s2.376-1.542,1.834-3.125s-19.917-58.333-19.917-58.333s-3.457,0.415-3.457,0.54s-7.209,61.417-7.209,61.417
			s0.473,0.946,1.167,1.917c0.72,1.005,3.665-0.152,3.585,0.625s0.123,1.208-1.002,1.292s-10.125,1.25-10.125,1.25
			S475.368,173.048,476.076,171.464z"/>
		<path fill="#FFFFFF" d="M556.667,115.5c0,0-3.084-0.333-4.167,0s-3.583,1.083-3.833,0.833s-0.668-1.5,0.416-2
			s3.699-6.667,2.1-9.833c-1.599-3.166-13.1-7.583-22.183,0.917s-8.249,24.536,1.417,32.518s31.515,14.646,32.257,32.189
			s-9.049,34.251-28.521,36.747c-16.403,2.103-32.921-5.038-35.785-22.538s9.303-28.667,20.136-28.833s9,6.667,9,6.667
			s-0.5,1.292-1.792,0.875s-0.459-1.458-0.167-1.542s-0.458-4.667-7.208-4.167s-21.5,10.167-16.25,27.167
			s22.541,19.25,30.779,18.086c11.51-1.626,27.472-12.502,26.638-31.752s-26.166-26.667-30.5-30.833s-10.751-10.625-9.126-22.25
			s14.5-23,25.875-18.875s8.125,12,8.125,12s-0.568,1.989,1.594,2.5C557.188,113.781,557.562,114.562,556.667,115.5z"/>
	</g>
	<path fill="#FFFFFF" d="M495.168,299c0,0,5.38-7.772-3.894-10.803c0,0-7.273-2.667-11.44,5.401
		c-4.167,8.068,1.928,18.148,13.667,25.735c12.249,7.917,20.425,19.838,20,26.667c-0.751,12.083-1.667,31.166-29,32.5
		s-27.333-25.167-27.333-30s7.166-18.666,16.166-17.333s3.666,10.667,0.5,8c0,0-0.832-1.833,0.334-2s3.629-3.171-1.5-4.005
		s-13.833,6.884-14.334,15.338s1.501,27.334,25.834,27.667s26.249-17.75,26.833-30.5c0.549-11.989-14.075-22.643-18.584-25
		C487,317.833,469.334,303.5,478.334,292s19.666-4.5,21,0s1.834,5.333,2.334,5.5s1.999,0.334-1.834,1.667
		S494.031,301.396,495.168,299z"/>
	<path fill="#FFFFFF" d="M512.181,292.986c0,0,2.994,9.001,3.993,11.336c0.998,2.334,2.495,7.835,2.495,7.835l16.835-2.823
		c0,0,4.835-3.83,5.835-4.163c1.001-0.333,0.499,2.333-0.002,3.5c-0.501,1.166-0.669,4.166-1.503,4.332
		c-0.833,0.167-1.664-1.834-1.664-1.834l-18.502,3.155c0,0,0.661,7.834,0.658,11.5c-0.002,3.667-1.673,10.833-1.673,10.833
		s14.502-4.324,19.67-5.488s11.501-1.328,11.501-1.328s0.503-3.665,1.838-5.997c1.334-2.333,4.805-3.594,5.172-5.761
		c0.366-2.167,0.135-4.584,0.833-5.083c0.699-0.5,1.786-1.045,2.451,0.956c0.666,2,0.263,5.128-2.367,7.878
		c-2.973,3.109-2.425,4.513-1.926,6.18s2.83,3.835,2.496,5.502s-0.334,1.667-0.334,1.667s-18-0.344-24.501,1.485
		s-17.171,5.989-17.171,5.989s-0.999-1.167,0.003-4.167s3.676-12.831,0.85-24.5c-2.827-11.668-10.485-23.673-10.485-23.673
		s-1.334-0.835,4.167-1.165c5.5-0.33,16.334-0.99,18.668-1.655c2.333-0.665,16.669-2.888,16.669-2.888s1.999,0.899-0.502,2.564
		c-2.501,1.666-11.336,5.16-17.004,5.657C523.014,293.326,512.181,292.986,512.181,292.986z"/>
	<path fill="#FFFFFF" d="M580.193,356.902c0,0,2.994,9.002,3.991,11.336c0.998,2.334,2.495,7.835,2.495,7.835l16.835-2.823
		c0,0,4.835-3.83,5.835-4.162c1.001-0.334,0.499,2.333-0.002,3.5c-0.501,1.166-0.669,4.165-1.503,4.332
		c-0.833,0.166-1.664-1.834-1.664-1.834l-18.502,3.154c0,0,0.661,7.834,0.658,11.5c-0.002,3.667-1.673,10.833-1.673,10.833
		s14.502-4.324,19.67-5.487c5.168-1.164,11.501-1.328,11.501-1.328s0.503-3.665,1.838-5.998c1.334-2.332,4.806-3.594,5.172-5.76
		c0.366-2.168,0.137-4.584,0.833-5.084c0.699-0.5,1.786-1.045,2.451,0.955c0.666,2.001,0.263,5.129-2.367,7.879
		c-2.973,3.108-2.425,4.512-1.926,6.18c0.499,1.667,2.83,3.834,2.496,5.502C626,399.098,626,399.098,626,399.098
		s-18-0.344-24.501,1.484c-6.501,1.829-17.171,5.99-17.171,5.99s-0.999-1.168,0.003-4.168c1.002-2.999,3.676-12.83,0.85-24.499
		c-2.827-11.669-10.483-23.673-10.483-23.673s-1.334-0.835,4.167-1.165c5.5-0.33,16.334-0.99,18.668-1.655
		c2.333-0.665,16.669-2.888,16.669-2.888s1.999,0.897-0.502,2.562c-2.501,1.666-11.336,5.16-17.004,5.657
		S580.193,356.902,580.193,356.902z"/>
	<path fill="#FFFFFF" d="M516.25,360c0,0-2.375,6-3.375,7.25s-1.375,3.465,0,3.545s2.625-1.045,5.625-2.045
		s20.25-3.451,21.375-3.351c0,0,9.125,40.101,9.125,41.976s-3.625,9.25-4.25,10.25s-0.875,1.625,0,1.625S555,417.5,555,417.5
		l-10.375-52.625c0,0,9.25-2.375,17.875-7s11.75-7.95,11-9.35c-0.75-1.4-1.746-0.491-3.623,0.99C568,351,552,358.75,540.5,360
		S516.25,360,516.25,360z"/>
	<path class="bigLetters" fill="#7C5A35" d="M236.028,433.5c-12.333-11.667-35.7-4.828-54.318-2.199c0,0,12.201,85.396,12.29,86.199
		c4.42,39.805,13.729,86.188-26.25,100.25c-36.25,12.75-43.607-19.627-38.75-31.5c9-22,31.25-20.5,31.25-20.5
		s-33.413-17.956-50.757,16.127C92,616.25,117,649.288,148.601,649.288c26.899,0,69.186-13.377,65.732-70.288
		c-2.37-39.057-9.333-71-9.333-71s27.333-2,34.213-11.136C251.091,481.091,248.361,445.167,236.028,433.5z M230.037,482.5
		c-4,6-25.827,8.541-25.827,8.541l-6.689-47.819c0,0,10.375-1.414,17.979-2.388c14.537-1.861,14.537,10.883,15.667,19
		C231.766,464.139,234.293,476.114,230.037,482.5z"/>
	<path class="bigLetters" fill="#7C5A35" d="M315.394,520.823c-0.782-0.326-1.437-2.482-1.437-2.482l-13.285-39.191l-0.089-0.265
		c13.121-5.211,19.127-4.74,19.127-4.74s-10.039-3.742-21.271-1.586l-0.037-0.106l-14.229-41.982c0,0,0-2.5,2.298-5.154
		c2.762-3.193,0-2.555,0-2.555s-20.761,2.617-23.763,3.009c-3.002,0.394-1.241,1.829-1.241,1.829l5.22,4.793l-5.647,44.938
		l-0.018,0.133c-12.894-0.76-25.993,8.046-25.993,8.046s13.318-4.111,25.106-0.98l-0.017,0.132l-4.719,37.54
		c0,0-0.652,3.05-1.958,5.397c-1.305,2.352-4.191,3.293-4.191,3.293c-1.11,2.482-0.379,3.061-0.379,3.061s16.101-1.828,17.862-1.959
		c1.763-0.131,1.445-0.808,1.57-2.023c0.126-1.218-3.734-0.293-4.862-1.869c-1.087-1.52-1.75-5.5-1.75-5.5l4.327-35.962l0.146,0.021
		c8.165,3.588,12.651,8.689,12.651,8.689s4.456-6.807,12.647-12.02l0.069,0.214c6.012,18.346,12.109,36.944,12.533,38.181
		c0.849,2.481,0.078,2.107-1.162,3.479c-1.242,1.371,0.391,2.219,0.391,2.219l15.689-2.284c0,0,0.523-1.044,0.719-1.564
		C319.898,523.043,316.178,521.148,315.394,520.823z M278.214,483.969c0,0-2.903-3.515-11.21-5.54l0.039-0.318l3.611-30.02
		l8.869-1.225c0,0,4.345,13.271,9.379,28.643l0.107,0.324C282.11,479.354,278.214,483.969,278.214,483.969z"/>
	<path class="bigLetters" fill="#7C5A35" d="M467.469,501.436c-0.781-0.324-1.437-2.48-1.437-2.48l-13.285-39.193l-0.089-0.263
		c13.121-5.211,19.127-4.74,19.127-4.74s-10.039-3.744-21.271-1.586l-0.037-0.106l-15.229-44.982c0,0,0-2.5,2.298-5.156
		c2.762-3.191,0-2.553,0-2.553s-20.761,2.617-23.763,3.009c-3.002,0.394-1.241,1.829-1.241,1.829l5.22,4.793l-4.646,47.938
		l-0.02,0.133c-12.894-0.76-25.993,8.046-25.993,8.046s13.318-4.112,25.106-0.982l-0.017,0.133l-4.721,37.54
		c0,0-0.65,3.051-1.958,5.398c-1.305,2.35-4.189,3.293-4.189,3.293c-1.11,2.482-0.379,3.06-0.379,3.06s16.101-1.827,17.86-1.959
		c1.765-0.132,1.445-0.807,1.57-2.022c0.126-1.218-3.734-0.293-4.862-1.869c-1.087-1.52-1.75-5.5-1.75-5.5l4.327-35.962l0.146,0.021
		c8.165,3.589,12.649,8.69,12.649,8.69s4.456-6.807,12.647-12.02l0.067,0.214c6.014,18.346,12.109,36.942,12.533,38.181
		c0.851,2.481,0.078,2.107-1.162,3.479c-1.24,1.37,0.393,2.219,0.393,2.219l15.688-2.284c0,0,0.523-1.044,0.72-1.565
		C471.973,503.655,468.253,501.761,467.469,501.436z M430.289,464.581c0,0-2.903-3.515-11.21-5.54l0.039-0.32l2.609-32.018
		l8.869-1.227c0,0,5.347,15.271,10.379,30.645l0.107,0.324C434.185,459.967,430.289,464.581,430.289,464.581z"/>
	<path class="bigLetters" fill="#7C5A35" d="M633.834,549.001c-15.499-2.333-7.5-16.833-7.5-16.833s10.667-13.834,23.834-0.834
		c12.916,12.752-1.613,37.113-24.034,40.234c-24.648,3.432-42.8-4.235-42.8-4.235c-36-20-43.667-44.666-56.736-73.646
		c-17.101-37.921-27.931-82.938-47.931-87.114l12.246,84.601l4.683,6.859c0,0,4.362,4.052-1.611,6.078l-13.166,1.313
		c-4.566-1.634-1.562-5.929-1.562-5.929l3.021-8.031L471.25,407c0,0-6.917,4.502-11.167,6.751s-4.825-12-4.825-12
		s-0.758-3.167,6.992-3.751c8.812-0.664,22.182-4.516,35.75,7c12.667,10.75,25.895,48.038,35.5,63.5l-9.666-68.843l-3.982-6.6
		c0,0-2.518-3.351,1.607-3.809L533.5,388c3.876-0.458,2.5,3,2.5,3l-2.5,8.25c0.25,1,8.5,61.75,8.5,61.75
		s16.667,75.334,49.167,62.834c0,0-6.666-11.167,4.834-18.167c0,0,12-6.276,20.5,7.667c0,0,8.166,19-11.834,25
		c0,0-33.381,6.025-49.535-15.833c0,0,15.201,31.456,53.702,35.167C608.834,557.668,628.001,558.335,633.834,549.001z"/>
	<path class="bigLetters" fill="#7C5A35" d="M496.25,541.5c-5.5-3.25-15.75-4.25-19.5,5.25s4.25,11,4.25,11c-1.75,6-11.25,13.5-35,13.25
		s-34.75-18.25-34.75-18.25c18,14,40.28,7.279,45.585,0.375c6.497-8.457,2.531-16.973-1.969-19.223S442,533.5,439.75,539
		s2.25,6.5,2.25,6.5c-6,8.25-27.838,0.83-36.25-8.5c-8.416-9.334-12.047-38.863-22.047-52.446
		C378.265,477.168,370,476.75,370,476.75c12.197-9.504,10.734-21.31,8-36.318c-2.734-15.008-13.296-28.271-17.046-29.521
		s-48.204,5.342-48.204,5.342c-2.615,0.344-3.75,1.417-2.417,2.751s8.667,4.666,8.667,4.666l12.41,91.846
		c-0.416,1.873-4.348,10.112-2.598,10.552l21.586-3.396c1.732-2-6.399-9.109-6.399-9.109l-3.438-25.118
		c16.333-2.333,28.45-6.875,36.541,12.096c6.131,14.375,21.563,64.801,45.601,80.468c25.058,16.331,56.516,7.226,71.054-5
		C509.508,562.757,501.75,544.75,496.25,541.5z M363.269,462.155c-3,4.75-26.236,7.32-26.236,7.32l-5.221-42.14
		c0,0,15.834-3.748,21.855-1.766c6.471,2.13,10.284,11.265,11.225,15.417C365.954,445.677,366.269,457.405,363.269,462.155z"/>
</g>
</svg>
